<mxfile host="app.diagrams.net" modified="2023-10-30T11:54:13.268Z" agent="Mozilla/5.0 (Macintosh; Intel Mac OS X 10_15_7) AppleWebKit/537.36 (KHTML, like Gecko) Chrome/118.0.0.0 Safari/537.36" etag="p6_LnDf3SbcsAfNHquRB" version="22.0.8" type="device">
  <diagram id="R2lEEEUBdFMjLlhIrx00" name="Page-1">
    <mxGraphModel dx="1493" dy="950" grid="1" gridSize="10" guides="1" tooltips="1" connect="1" arrows="1" fold="1" page="1" pageScale="1" pageWidth="850" pageHeight="1100" math="0" shadow="0" extFonts="Permanent Marker^https://fonts.googleapis.com/css?family=Permanent+Marker">
      <root>
        <mxCell id="0" />
        <mxCell id="1" parent="0" />
        <mxCell id="u5r3oi_NGVK20QQiaL4--15" style="edgeStyle=orthogonalEdgeStyle;rounded=0;orthogonalLoop=1;jettySize=auto;html=1;entryX=0;entryY=0.5;entryDx=0;entryDy=0;endArrow=none;endFill=0;" parent="1" source="u5r3oi_NGVK20QQiaL4--1" target="u5r3oi_NGVK20QQiaL4--14" edge="1">
          <mxGeometry relative="1" as="geometry" />
        </mxCell>
        <mxCell id="u5r3oi_NGVK20QQiaL4--108" style="edgeStyle=orthogonalEdgeStyle;rounded=0;orthogonalLoop=1;jettySize=auto;html=1;exitX=0.75;exitY=1;exitDx=0;exitDy=0;entryX=1;entryY=0.5;entryDx=0;entryDy=0;endArrow=none;endFill=0;" parent="1" source="u5r3oi_NGVK20QQiaL4--1" target="u5r3oi_NGVK20QQiaL4--107" edge="1">
          <mxGeometry relative="1" as="geometry" />
        </mxCell>
        <mxCell id="u5r3oi_NGVK20QQiaL4--1" value="Doctor" style="rounded=0;whiteSpace=wrap;html=1;fillColor=#dae8fc;strokeColor=#6c8ebf;" parent="1" vertex="1">
          <mxGeometry x="130" y="130" width="120" height="60" as="geometry" />
        </mxCell>
        <mxCell id="u5r3oi_NGVK20QQiaL4--10" style="edgeStyle=orthogonalEdgeStyle;rounded=0;orthogonalLoop=1;jettySize=auto;html=1;entryX=0;entryY=0.75;entryDx=0;entryDy=0;endArrow=none;endFill=0;curved=1;" parent="1" source="u5r3oi_NGVK20QQiaL4--4" target="u5r3oi_NGVK20QQiaL4--1" edge="1">
          <mxGeometry relative="1" as="geometry" />
        </mxCell>
        <mxCell id="u5r3oi_NGVK20QQiaL4--4" value="specialization" style="ellipse;whiteSpace=wrap;html=1;" parent="1" vertex="1">
          <mxGeometry x="20" y="150" width="90" height="40" as="geometry" />
        </mxCell>
        <mxCell id="u5r3oi_NGVK20QQiaL4--20" style="edgeStyle=orthogonalEdgeStyle;rounded=0;orthogonalLoop=1;jettySize=auto;html=1;entryX=0;entryY=0.5;entryDx=0;entryDy=0;endArrow=none;endFill=0;curved=1;" parent="1" source="u5r3oi_NGVK20QQiaL4--13" target="u5r3oi_NGVK20QQiaL4--18" edge="1">
          <mxGeometry relative="1" as="geometry" />
        </mxCell>
        <mxCell id="u5r3oi_NGVK20QQiaL4--26" style="edgeStyle=orthogonalEdgeStyle;rounded=0;orthogonalLoop=1;jettySize=auto;html=1;entryX=0.5;entryY=0;entryDx=0;entryDy=0;endArrow=none;endFill=0;startArrow=classic;startFill=1;" parent="1" source="u5r3oi_NGVK20QQiaL4--13" target="u5r3oi_NGVK20QQiaL4--25" edge="1">
          <mxGeometry relative="1" as="geometry" />
        </mxCell>
        <mxCell id="u5r3oi_NGVK20QQiaL4--139" style="edgeStyle=orthogonalEdgeStyle;rounded=0;orthogonalLoop=1;jettySize=auto;html=1;exitX=0.75;exitY=1;exitDx=0;exitDy=0;entryX=0;entryY=0;entryDx=0;entryDy=0;endArrow=none;endFill=0;curved=1;" parent="1" source="u5r3oi_NGVK20QQiaL4--13" target="u5r3oi_NGVK20QQiaL4--138" edge="1">
          <mxGeometry relative="1" as="geometry" />
        </mxCell>
        <mxCell id="5ir33pK8YzCBuGAASgYP-12" style="edgeStyle=orthogonalEdgeStyle;rounded=0;orthogonalLoop=1;jettySize=auto;html=1;exitX=0;exitY=1;exitDx=0;exitDy=0;entryX=1;entryY=0.5;entryDx=0;entryDy=0;" parent="1" source="u5r3oi_NGVK20QQiaL4--13" target="u5r3oi_NGVK20QQiaL4--96" edge="1">
          <mxGeometry relative="1" as="geometry">
            <Array as="points">
              <mxPoint x="600" y="640" />
            </Array>
          </mxGeometry>
        </mxCell>
        <mxCell id="u5r3oi_NGVK20QQiaL4--13" value="Patient" style="rounded=0;whiteSpace=wrap;html=1;fillColor=#dae8fc;strokeColor=#6c8ebf;" parent="1" vertex="1">
          <mxGeometry x="600" y="130" width="120" height="60" as="geometry" />
        </mxCell>
        <mxCell id="u5r3oi_NGVK20QQiaL4--16" style="edgeStyle=orthogonalEdgeStyle;rounded=0;orthogonalLoop=1;jettySize=auto;html=1;entryX=0;entryY=0.5;entryDx=0;entryDy=0;endArrow=none;endFill=0;" parent="1" source="u5r3oi_NGVK20QQiaL4--14" target="u5r3oi_NGVK20QQiaL4--13" edge="1">
          <mxGeometry relative="1" as="geometry" />
        </mxCell>
        <mxCell id="u5r3oi_NGVK20QQiaL4--14" value="Consults" style="rhombus;whiteSpace=wrap;html=1;fillColor=#fff2cc;strokeColor=#d6b656;" parent="1" vertex="1">
          <mxGeometry x="385" y="120" width="80" height="80" as="geometry" />
        </mxCell>
        <mxCell id="u5r3oi_NGVK20QQiaL4--19" style="edgeStyle=orthogonalEdgeStyle;rounded=0;orthogonalLoop=1;jettySize=auto;html=1;exitX=0;exitY=1;exitDx=0;exitDy=0;entryX=0.875;entryY=0.025;entryDx=0;entryDy=0;entryPerimeter=0;endArrow=none;endFill=0;curved=1;" parent="1" source="u5r3oi_NGVK20QQiaL4--17" target="u5r3oi_NGVK20QQiaL4--13" edge="1">
          <mxGeometry relative="1" as="geometry" />
        </mxCell>
        <mxCell id="u5r3oi_NGVK20QQiaL4--17" value="patient-id" style="ellipse;whiteSpace=wrap;html=1;" parent="1" vertex="1">
          <mxGeometry x="710" y="90" width="90" height="40" as="geometry" />
        </mxCell>
        <mxCell id="u5r3oi_NGVK20QQiaL4--18" value="patient-name" style="ellipse;whiteSpace=wrap;html=1;" parent="1" vertex="1">
          <mxGeometry x="740" y="140" width="90" height="40" as="geometry" />
        </mxCell>
        <mxCell id="u5r3oi_NGVK20QQiaL4--22" style="edgeStyle=orthogonalEdgeStyle;rounded=0;orthogonalLoop=1;jettySize=auto;html=1;exitX=0;exitY=0.5;exitDx=0;exitDy=0;entryX=1;entryY=1;entryDx=0;entryDy=0;endArrow=none;endFill=0;curved=1;" parent="1" source="u5r3oi_NGVK20QQiaL4--21" target="u5r3oi_NGVK20QQiaL4--13" edge="1">
          <mxGeometry relative="1" as="geometry" />
        </mxCell>
        <mxCell id="u5r3oi_NGVK20QQiaL4--21" value="patient-gender" style="ellipse;whiteSpace=wrap;html=1;" parent="1" vertex="1">
          <mxGeometry x="750" y="190" width="90" height="40" as="geometry" />
        </mxCell>
        <mxCell id="u5r3oi_NGVK20QQiaL4--24" style="edgeStyle=orthogonalEdgeStyle;rounded=0;orthogonalLoop=1;jettySize=auto;html=1;entryX=0.558;entryY=0.042;entryDx=0;entryDy=0;entryPerimeter=0;endArrow=none;endFill=0;curved=1;" parent="1" source="u5r3oi_NGVK20QQiaL4--23" target="u5r3oi_NGVK20QQiaL4--13" edge="1">
          <mxGeometry relative="1" as="geometry" />
        </mxCell>
        <mxCell id="u5r3oi_NGVK20QQiaL4--23" value="patient-age" style="ellipse;whiteSpace=wrap;html=1;" parent="1" vertex="1">
          <mxGeometry x="630" y="60" width="90" height="40" as="geometry" />
        </mxCell>
        <mxCell id="u5r3oi_NGVK20QQiaL4--25" value="Books" style="rhombus;whiteSpace=wrap;html=1;fillColor=#fff2cc;strokeColor=#d6b656;" parent="1" vertex="1">
          <mxGeometry x="620" y="230" width="80" height="80" as="geometry" />
        </mxCell>
        <mxCell id="u5r3oi_NGVK20QQiaL4--28" style="edgeStyle=orthogonalEdgeStyle;rounded=0;orthogonalLoop=1;jettySize=auto;html=1;entryX=0.5;entryY=1;entryDx=0;entryDy=0;endArrow=none;endFill=0;" parent="1" source="u5r3oi_NGVK20QQiaL4--27" target="u5r3oi_NGVK20QQiaL4--25" edge="1">
          <mxGeometry relative="1" as="geometry" />
        </mxCell>
        <mxCell id="u5r3oi_NGVK20QQiaL4--34" style="edgeStyle=orthogonalEdgeStyle;rounded=0;orthogonalLoop=1;jettySize=auto;html=1;exitX=0.75;exitY=0;exitDx=0;exitDy=0;entryX=0;entryY=0.5;entryDx=0;entryDy=0;endArrow=none;endFill=0;curved=1;" parent="1" source="u5r3oi_NGVK20QQiaL4--27" target="u5r3oi_NGVK20QQiaL4--33" edge="1">
          <mxGeometry relative="1" as="geometry" />
        </mxCell>
        <mxCell id="u5r3oi_NGVK20QQiaL4--35" style="edgeStyle=orthogonalEdgeStyle;rounded=0;orthogonalLoop=1;jettySize=auto;html=1;exitX=1;exitY=0.25;exitDx=0;exitDy=0;entryX=0;entryY=0.5;entryDx=0;entryDy=0;endArrow=none;endFill=0;curved=1;" parent="1" source="u5r3oi_NGVK20QQiaL4--27" target="u5r3oi_NGVK20QQiaL4--32" edge="1">
          <mxGeometry relative="1" as="geometry" />
        </mxCell>
        <mxCell id="u5r3oi_NGVK20QQiaL4--36" style="edgeStyle=orthogonalEdgeStyle;rounded=0;orthogonalLoop=1;jettySize=auto;html=1;exitX=1;exitY=0.75;exitDx=0;exitDy=0;entryX=0;entryY=0.5;entryDx=0;entryDy=0;curved=1;endArrow=none;endFill=0;" parent="1" source="u5r3oi_NGVK20QQiaL4--27" target="u5r3oi_NGVK20QQiaL4--30" edge="1">
          <mxGeometry relative="1" as="geometry" />
        </mxCell>
        <mxCell id="u5r3oi_NGVK20QQiaL4--37" style="edgeStyle=orthogonalEdgeStyle;rounded=0;orthogonalLoop=1;jettySize=auto;html=1;exitX=0.75;exitY=1;exitDx=0;exitDy=0;entryX=0;entryY=0;entryDx=0;entryDy=0;endArrow=none;endFill=0;curved=1;" parent="1" source="u5r3oi_NGVK20QQiaL4--27" target="u5r3oi_NGVK20QQiaL4--29" edge="1">
          <mxGeometry relative="1" as="geometry" />
        </mxCell>
        <mxCell id="u5r3oi_NGVK20QQiaL4--27" value="Appointment" style="rounded=0;whiteSpace=wrap;html=1;fillColor=#dae8fc;strokeColor=#6c8ebf;" parent="1" vertex="1">
          <mxGeometry x="600" y="350" width="120" height="60" as="geometry" />
        </mxCell>
        <mxCell id="u5r3oi_NGVK20QQiaL4--29" value="doc-id" style="ellipse;whiteSpace=wrap;html=1;" parent="1" vertex="1">
          <mxGeometry x="690" y="430" width="90" height="40" as="geometry" />
        </mxCell>
        <mxCell id="u5r3oi_NGVK20QQiaL4--30" value="patient-id" style="ellipse;whiteSpace=wrap;html=1;" parent="1" vertex="1">
          <mxGeometry x="750" y="390" width="90" height="40" as="geometry" />
        </mxCell>
        <mxCell id="u5r3oi_NGVK20QQiaL4--32" value="notes" style="ellipse;whiteSpace=wrap;html=1;" parent="1" vertex="1">
          <mxGeometry x="740" y="340" width="90" height="40" as="geometry" />
        </mxCell>
        <mxCell id="u5r3oi_NGVK20QQiaL4--33" value="admitted_time" style="ellipse;whiteSpace=wrap;html=1;" parent="1" vertex="1">
          <mxGeometry x="710" y="290" width="90" height="40" as="geometry" />
        </mxCell>
        <mxCell id="u5r3oi_NGVK20QQiaL4--39" style="edgeStyle=orthogonalEdgeStyle;rounded=0;orthogonalLoop=1;jettySize=auto;html=1;entryX=0.5;entryY=1;entryDx=0;entryDy=0;endArrow=classic;endFill=1;startArrow=none;startFill=0;" parent="1" source="u5r3oi_NGVK20QQiaL4--38" target="u5r3oi_NGVK20QQiaL4--1" edge="1">
          <mxGeometry relative="1" as="geometry" />
        </mxCell>
        <mxCell id="u5r3oi_NGVK20QQiaL4--38" value="Diagnose" style="rhombus;whiteSpace=wrap;html=1;fillColor=#fff2cc;strokeColor=#d6b656;" parent="1" vertex="1">
          <mxGeometry x="150" y="420" width="80" height="80" as="geometry" />
        </mxCell>
        <mxCell id="u5r3oi_NGVK20QQiaL4--41" style="edgeStyle=orthogonalEdgeStyle;rounded=0;orthogonalLoop=1;jettySize=auto;html=1;entryX=0.5;entryY=1;entryDx=0;entryDy=0;endArrow=none;endFill=0;" parent="1" source="u5r3oi_NGVK20QQiaL4--40" target="u5r3oi_NGVK20QQiaL4--38" edge="1">
          <mxGeometry relative="1" as="geometry">
            <mxPoint x="190" y="560" as="targetPoint" />
          </mxGeometry>
        </mxCell>
        <mxCell id="u5r3oi_NGVK20QQiaL4--46" style="edgeStyle=orthogonalEdgeStyle;rounded=0;orthogonalLoop=1;jettySize=auto;html=1;exitX=0;exitY=0;exitDx=0;exitDy=0;entryX=1;entryY=1;entryDx=0;entryDy=0;endArrow=none;endFill=0;curved=1;" parent="1" source="u5r3oi_NGVK20QQiaL4--40" target="u5r3oi_NGVK20QQiaL4--43" edge="1">
          <mxGeometry relative="1" as="geometry" />
        </mxCell>
        <mxCell id="u5r3oi_NGVK20QQiaL4--47" style="edgeStyle=orthogonalEdgeStyle;rounded=0;orthogonalLoop=1;jettySize=auto;html=1;exitX=0;exitY=0.25;exitDx=0;exitDy=0;entryX=1;entryY=0;entryDx=0;entryDy=0;endArrow=none;endFill=0;" parent="1" source="u5r3oi_NGVK20QQiaL4--40" target="u5r3oi_NGVK20QQiaL4--42" edge="1">
          <mxGeometry relative="1" as="geometry" />
        </mxCell>
        <mxCell id="u5r3oi_NGVK20QQiaL4--49" style="edgeStyle=orthogonalEdgeStyle;rounded=0;orthogonalLoop=1;jettySize=auto;html=1;exitX=0;exitY=1;exitDx=0;exitDy=0;entryX=1;entryY=0;entryDx=0;entryDy=0;endArrow=none;endFill=0;curved=1;" parent="1" source="u5r3oi_NGVK20QQiaL4--40" target="u5r3oi_NGVK20QQiaL4--44" edge="1">
          <mxGeometry relative="1" as="geometry" />
        </mxCell>
        <mxCell id="u5r3oi_NGVK20QQiaL4--51" style="edgeStyle=orthogonalEdgeStyle;rounded=0;orthogonalLoop=1;jettySize=auto;html=1;exitX=0.25;exitY=1;exitDx=0;exitDy=0;entryX=0.5;entryY=0;entryDx=0;entryDy=0;endArrow=none;endFill=0;curved=1;" parent="1" source="u5r3oi_NGVK20QQiaL4--40" target="u5r3oi_NGVK20QQiaL4--45" edge="1">
          <mxGeometry relative="1" as="geometry" />
        </mxCell>
        <mxCell id="u5r3oi_NGVK20QQiaL4--54" style="edgeStyle=orthogonalEdgeStyle;rounded=0;orthogonalLoop=1;jettySize=auto;html=1;exitX=0.75;exitY=0;exitDx=0;exitDy=0;entryX=0;entryY=1;entryDx=0;entryDy=0;endArrow=none;endFill=0;curved=1;" parent="1" source="u5r3oi_NGVK20QQiaL4--40" target="u5r3oi_NGVK20QQiaL4--52" edge="1">
          <mxGeometry relative="1" as="geometry" />
        </mxCell>
        <mxCell id="u5r3oi_NGVK20QQiaL4--93" style="edgeStyle=orthogonalEdgeStyle;rounded=0;orthogonalLoop=1;jettySize=auto;html=1;entryX=0;entryY=0.5;entryDx=0;entryDy=0;endArrow=none;endFill=0;" parent="1" source="u5r3oi_NGVK20QQiaL4--40" target="u5r3oi_NGVK20QQiaL4--58" edge="1">
          <mxGeometry relative="1" as="geometry" />
        </mxCell>
        <mxCell id="u5r3oi_NGVK20QQiaL4--40" value="Record" style="rounded=0;whiteSpace=wrap;html=1;fillColor=#dae8fc;strokeColor=#6c8ebf;" parent="1" vertex="1">
          <mxGeometry x="130" y="600" width="120" height="60" as="geometry" />
        </mxCell>
        <mxCell id="u5r3oi_NGVK20QQiaL4--42" value="patient-id" style="ellipse;whiteSpace=wrap;html=1;" parent="1" vertex="1">
          <mxGeometry x="20" y="610" width="90" height="40" as="geometry" />
        </mxCell>
        <mxCell id="u5r3oi_NGVK20QQiaL4--43" value="doc-id" style="ellipse;whiteSpace=wrap;html=1;" parent="1" vertex="1">
          <mxGeometry x="40" y="560" width="90" height="40" as="geometry" />
        </mxCell>
        <mxCell id="u5r3oi_NGVK20QQiaL4--44" value="diagnosis" style="ellipse;whiteSpace=wrap;html=1;" parent="1" vertex="1">
          <mxGeometry x="30" y="660" width="90" height="40" as="geometry" />
        </mxCell>
        <mxCell id="u5r3oi_NGVK20QQiaL4--45" value="prescription" style="ellipse;whiteSpace=wrap;html=1;" parent="1" vertex="1">
          <mxGeometry x="100" y="690" width="90" height="40" as="geometry" />
        </mxCell>
        <mxCell id="u5r3oi_NGVK20QQiaL4--52" value="patient-status" style="ellipse;whiteSpace=wrap;html=1;" parent="1" vertex="1">
          <mxGeometry x="220" y="540" width="90" height="40" as="geometry" />
        </mxCell>
        <mxCell id="u5r3oi_NGVK20QQiaL4--56" style="edgeStyle=orthogonalEdgeStyle;rounded=0;orthogonalLoop=1;jettySize=auto;html=1;exitX=1;exitY=1;exitDx=0;exitDy=0;entryX=0.25;entryY=0;entryDx=0;entryDy=0;endArrow=none;endFill=0;curved=1;" parent="1" source="u5r3oi_NGVK20QQiaL4--55" target="u5r3oi_NGVK20QQiaL4--40" edge="1">
          <mxGeometry relative="1" as="geometry" />
        </mxCell>
        <mxCell id="u5r3oi_NGVK20QQiaL4--55" value="record-id" style="ellipse;whiteSpace=wrap;html=1;" parent="1" vertex="1">
          <mxGeometry x="50" y="510" width="90" height="40" as="geometry" />
        </mxCell>
        <mxCell id="u5r3oi_NGVK20QQiaL4--94" style="edgeStyle=orthogonalEdgeStyle;rounded=0;orthogonalLoop=1;jettySize=auto;html=1;entryX=0;entryY=0.642;entryDx=0;entryDy=0;entryPerimeter=0;endArrow=classic;endFill=1;" parent="1" source="u5r3oi_NGVK20QQiaL4--58" target="u5r3oi_NGVK20QQiaL4--60" edge="1">
          <mxGeometry relative="1" as="geometry" />
        </mxCell>
        <mxCell id="u5r3oi_NGVK20QQiaL4--58" value="Admit" style="rhombus;whiteSpace=wrap;html=1;fillColor=#fff2cc;strokeColor=#d6b656;" parent="1" vertex="1">
          <mxGeometry x="320" y="590" width="80" height="80" as="geometry" />
        </mxCell>
        <mxCell id="u5r3oi_NGVK20QQiaL4--65" style="edgeStyle=orthogonalEdgeStyle;rounded=0;orthogonalLoop=1;jettySize=auto;html=1;exitX=1;exitY=1;exitDx=0;exitDy=0;entryX=0;entryY=0;entryDx=0;entryDy=0;endArrow=none;endFill=0;curved=1;" parent="1" source="u5r3oi_NGVK20QQiaL4--60" target="u5r3oi_NGVK20QQiaL4--64" edge="1">
          <mxGeometry relative="1" as="geometry" />
        </mxCell>
        <mxCell id="u5r3oi_NGVK20QQiaL4--97" style="edgeStyle=orthogonalEdgeStyle;rounded=0;orthogonalLoop=1;jettySize=auto;html=1;exitX=0.5;exitY=0;exitDx=0;exitDy=0;endArrow=none;endFill=0;startArrow=classic;startFill=1;" parent="1" source="u5r3oi_NGVK20QQiaL4--60" target="u5r3oi_NGVK20QQiaL4--96" edge="1">
          <mxGeometry relative="1" as="geometry" />
        </mxCell>
        <mxCell id="u5r3oi_NGVK20QQiaL4--135" style="edgeStyle=orthogonalEdgeStyle;rounded=0;orthogonalLoop=1;jettySize=auto;html=1;exitX=1;exitY=0.25;exitDx=0;exitDy=0;entryX=0;entryY=1;entryDx=0;entryDy=0;endArrow=none;endFill=0;curved=1;" parent="1" source="u5r3oi_NGVK20QQiaL4--60" target="u5r3oi_NGVK20QQiaL4--134" edge="1">
          <mxGeometry relative="1" as="geometry" />
        </mxCell>
        <mxCell id="u5r3oi_NGVK20QQiaL4--60" value="Room" style="rounded=0;whiteSpace=wrap;html=1;fillColor=#dae8fc;strokeColor=#6c8ebf;" parent="1" vertex="1">
          <mxGeometry x="440" y="710" width="120" height="60" as="geometry" />
        </mxCell>
        <mxCell id="u5r3oi_NGVK20QQiaL4--63" style="edgeStyle=orthogonalEdgeStyle;rounded=0;orthogonalLoop=1;jettySize=auto;html=1;exitX=0;exitY=0.5;exitDx=0;exitDy=0;entryX=1;entryY=0.75;entryDx=0;entryDy=0;endArrow=none;endFill=0;curved=1;" parent="1" target="u5r3oi_NGVK20QQiaL4--60" edge="1">
          <mxGeometry relative="1" as="geometry">
            <mxPoint x="580" y="750" as="sourcePoint" />
          </mxGeometry>
        </mxCell>
        <mxCell id="u5r3oi_NGVK20QQiaL4--62" value="room-id" style="ellipse;whiteSpace=wrap;html=1;" parent="1" vertex="1">
          <mxGeometry x="580" y="730" width="90" height="40" as="geometry" />
        </mxCell>
        <mxCell id="u5r3oi_NGVK20QQiaL4--64" value="record-id" style="ellipse;whiteSpace=wrap;html=1;" parent="1" vertex="1">
          <mxGeometry x="560" y="780" width="90" height="40" as="geometry" />
        </mxCell>
        <mxCell id="u5r3oi_NGVK20QQiaL4--70" style="edgeStyle=orthogonalEdgeStyle;rounded=0;orthogonalLoop=1;jettySize=auto;html=1;entryX=0.75;entryY=1;entryDx=0;entryDy=0;endArrow=classic;endFill=1;" parent="1" source="u5r3oi_NGVK20QQiaL4--66" target="u5r3oi_NGVK20QQiaL4--40" edge="1">
          <mxGeometry relative="1" as="geometry" />
        </mxCell>
        <mxCell id="u5r3oi_NGVK20QQiaL4--66" value="Discharge" style="rhombus;whiteSpace=wrap;html=1;fillColor=#fff2cc;strokeColor=#d6b656;" parent="1" vertex="1">
          <mxGeometry x="180" y="770" width="80" height="80" as="geometry" />
        </mxCell>
        <mxCell id="u5r3oi_NGVK20QQiaL4--72" style="edgeStyle=orthogonalEdgeStyle;rounded=0;orthogonalLoop=1;jettySize=auto;html=1;entryX=0.5;entryY=1;entryDx=0;entryDy=0;endArrow=none;endFill=0;" parent="1" source="u5r3oi_NGVK20QQiaL4--71" edge="1">
          <mxGeometry relative="1" as="geometry">
            <mxPoint x="220" y="900" as="targetPoint" />
          </mxGeometry>
        </mxCell>
        <mxCell id="u5r3oi_NGVK20QQiaL4--79" style="edgeStyle=orthogonalEdgeStyle;rounded=0;orthogonalLoop=1;jettySize=auto;html=1;exitX=0;exitY=0.25;exitDx=0;exitDy=0;entryX=1;entryY=0.5;entryDx=0;entryDy=0;endArrow=none;endFill=0;curved=1;" parent="1" source="u5r3oi_NGVK20QQiaL4--71" target="u5r3oi_NGVK20QQiaL4--74" edge="1">
          <mxGeometry relative="1" as="geometry" />
        </mxCell>
        <mxCell id="u5r3oi_NGVK20QQiaL4--81" style="edgeStyle=orthogonalEdgeStyle;rounded=0;orthogonalLoop=1;jettySize=auto;html=1;exitX=0;exitY=0.75;exitDx=0;exitDy=0;entryX=1;entryY=0;entryDx=0;entryDy=0;endArrow=none;endFill=0;curved=1;" parent="1" source="u5r3oi_NGVK20QQiaL4--71" target="u5r3oi_NGVK20QQiaL4--80" edge="1">
          <mxGeometry relative="1" as="geometry" />
        </mxCell>
        <mxCell id="u5r3oi_NGVK20QQiaL4--95" style="edgeStyle=orthogonalEdgeStyle;rounded=0;orthogonalLoop=1;jettySize=auto;html=1;entryX=0.5;entryY=1;entryDx=0;entryDy=0;endArrow=none;endFill=0;startArrow=classic;startFill=1;" parent="1" source="u5r3oi_NGVK20QQiaL4--71" target="u5r3oi_NGVK20QQiaL4--66" edge="1">
          <mxGeometry relative="1" as="geometry" />
        </mxCell>
        <mxCell id="u5r3oi_NGVK20QQiaL4--71" value="Hospital Bill" style="rounded=0;whiteSpace=wrap;html=1;fillColor=#dae8fc;strokeColor=#6c8ebf;" parent="1" vertex="1">
          <mxGeometry x="160" y="940" width="120" height="60" as="geometry" />
        </mxCell>
        <mxCell id="u5r3oi_NGVK20QQiaL4--74" value="patient-id" style="ellipse;whiteSpace=wrap;html=1;" parent="1" vertex="1">
          <mxGeometry x="60" y="940" width="90" height="40" as="geometry" />
        </mxCell>
        <mxCell id="u5r3oi_NGVK20QQiaL4--78" style="edgeStyle=orthogonalEdgeStyle;rounded=0;orthogonalLoop=1;jettySize=auto;html=1;exitX=1;exitY=1;exitDx=0;exitDy=0;entryX=0.25;entryY=0;entryDx=0;entryDy=0;endArrow=none;endFill=0;curved=1;" parent="1" source="u5r3oi_NGVK20QQiaL4--75" target="u5r3oi_NGVK20QQiaL4--71" edge="1">
          <mxGeometry relative="1" as="geometry" />
        </mxCell>
        <mxCell id="u5r3oi_NGVK20QQiaL4--75" value="bill-id" style="ellipse;whiteSpace=wrap;html=1;" parent="1" vertex="1">
          <mxGeometry x="100" y="890" width="90" height="40" as="geometry" />
        </mxCell>
        <mxCell id="u5r3oi_NGVK20QQiaL4--80" value="bill-amount" style="ellipse;whiteSpace=wrap;html=1;" parent="1" vertex="1">
          <mxGeometry x="70" y="990" width="90" height="40" as="geometry" />
        </mxCell>
        <mxCell id="u5r3oi_NGVK20QQiaL4--98" style="edgeStyle=orthogonalEdgeStyle;rounded=0;orthogonalLoop=1;jettySize=auto;html=1;endArrow=none;endFill=0;startArrow=classic;startFill=1;" parent="1" source="u5r3oi_NGVK20QQiaL4--82" target="u5r3oi_NGVK20QQiaL4--96" edge="1">
          <mxGeometry relative="1" as="geometry">
            <Array as="points">
              <mxPoint x="410" y="580" />
              <mxPoint x="500" y="580" />
            </Array>
          </mxGeometry>
        </mxCell>
        <mxCell id="u5r3oi_NGVK20QQiaL4--109" style="edgeStyle=orthogonalEdgeStyle;rounded=0;orthogonalLoop=1;jettySize=auto;html=1;endArrow=none;endFill=0;" parent="1" source="u5r3oi_NGVK20QQiaL4--82" target="u5r3oi_NGVK20QQiaL4--107" edge="1">
          <mxGeometry relative="1" as="geometry" />
        </mxCell>
        <mxCell id="u5r3oi_NGVK20QQiaL4--82" value="Nurse" style="rounded=0;whiteSpace=wrap;html=1;fillColor=#dae8fc;strokeColor=#6c8ebf;" parent="1" vertex="1">
          <mxGeometry x="350" y="460" width="120" height="60" as="geometry" />
        </mxCell>
        <mxCell id="u5r3oi_NGVK20QQiaL4--96" value="Assigned To" style="rhombus;whiteSpace=wrap;html=1;fillColor=#fff2cc;strokeColor=#d6b656;" parent="1" vertex="1">
          <mxGeometry x="460" y="600" width="80" height="80" as="geometry" />
        </mxCell>
        <mxCell id="u5r3oi_NGVK20QQiaL4--103" style="edgeStyle=orthogonalEdgeStyle;rounded=0;orthogonalLoop=1;jettySize=auto;html=1;exitX=1;exitY=0.25;exitDx=0;exitDy=0;entryX=0;entryY=1;entryDx=0;entryDy=0;endArrow=none;endFill=0;curved=1;" parent="1" source="u5r3oi_NGVK20QQiaL4--99" target="u5r3oi_NGVK20QQiaL4--102" edge="1">
          <mxGeometry relative="1" as="geometry" />
        </mxCell>
        <mxCell id="u5r3oi_NGVK20QQiaL4--106" style="edgeStyle=orthogonalEdgeStyle;rounded=0;orthogonalLoop=1;jettySize=auto;html=1;exitX=1;exitY=0.75;exitDx=0;exitDy=0;entryX=0;entryY=0;entryDx=0;entryDy=0;endArrow=none;endFill=0;curved=1;" parent="1" source="u5r3oi_NGVK20QQiaL4--99" target="u5r3oi_NGVK20QQiaL4--105" edge="1">
          <mxGeometry relative="1" as="geometry" />
        </mxCell>
        <mxCell id="u5r3oi_NGVK20QQiaL4--110" style="edgeStyle=orthogonalEdgeStyle;rounded=0;orthogonalLoop=1;jettySize=auto;html=1;entryX=0;entryY=0.5;entryDx=0;entryDy=0;endArrow=none;endFill=0;" parent="1" source="u5r3oi_NGVK20QQiaL4--99" target="u5r3oi_NGVK20QQiaL4--107" edge="1">
          <mxGeometry relative="1" as="geometry" />
        </mxCell>
        <mxCell id="u5r3oi_NGVK20QQiaL4--99" value="Employee" style="rounded=0;whiteSpace=wrap;html=1;fillColor=#dae8fc;strokeColor=#6c8ebf;" parent="1" vertex="1">
          <mxGeometry x="331" y="259" width="120" height="60" as="geometry" />
        </mxCell>
        <mxCell id="u5r3oi_NGVK20QQiaL4--101" style="edgeStyle=orthogonalEdgeStyle;rounded=0;orthogonalLoop=1;jettySize=auto;html=1;exitX=0;exitY=1;exitDx=0;exitDy=0;entryX=0.75;entryY=0;entryDx=0;entryDy=0;endArrow=none;endFill=0;curved=1;" parent="1" source="u5r3oi_NGVK20QQiaL4--100" target="u5r3oi_NGVK20QQiaL4--99" edge="1">
          <mxGeometry relative="1" as="geometry" />
        </mxCell>
        <mxCell id="u5r3oi_NGVK20QQiaL4--100" value="employee-id" style="ellipse;whiteSpace=wrap;html=1;" parent="1" vertex="1">
          <mxGeometry x="421" y="199" width="90" height="40" as="geometry" />
        </mxCell>
        <mxCell id="u5r3oi_NGVK20QQiaL4--102" value="employee-name" style="ellipse;whiteSpace=wrap;html=1;" parent="1" vertex="1">
          <mxGeometry x="466" y="249" width="90" height="40" as="geometry" />
        </mxCell>
        <mxCell id="u5r3oi_NGVK20QQiaL4--105" value="employee-gender" style="ellipse;whiteSpace=wrap;html=1;" parent="1" vertex="1">
          <mxGeometry x="466" y="299" width="90" height="40" as="geometry" />
        </mxCell>
        <mxCell id="u5r3oi_NGVK20QQiaL4--107" value="IS-A&amp;nbsp;" style="triangle;whiteSpace=wrap;html=1;rotation=-180;fillColor=#f8cecc;strokeColor=#b85450;" parent="1" vertex="1">
          <mxGeometry x="240" y="330" width="60" height="80" as="geometry" />
        </mxCell>
        <mxCell id="u5r3oi_NGVK20QQiaL4--112" style="edgeStyle=orthogonalEdgeStyle;rounded=0;orthogonalLoop=1;jettySize=auto;html=1;exitX=0;exitY=0;exitDx=0;exitDy=0;entryX=0.75;entryY=1;entryDx=0;entryDy=0;endArrow=none;endFill=0;curved=1;" parent="1" source="u5r3oi_NGVK20QQiaL4--111" target="u5r3oi_NGVK20QQiaL4--99" edge="1">
          <mxGeometry relative="1" as="geometry" />
        </mxCell>
        <mxCell id="u5r3oi_NGVK20QQiaL4--111" value="contact" style="ellipse;whiteSpace=wrap;html=1;" parent="1" vertex="1">
          <mxGeometry x="456" y="359" width="90" height="40" as="geometry" />
        </mxCell>
        <mxCell id="u5r3oi_NGVK20QQiaL4--127" style="edgeStyle=orthogonalEdgeStyle;rounded=0;orthogonalLoop=1;jettySize=auto;html=1;exitX=1;exitY=1;exitDx=0;exitDy=0;entryX=0;entryY=0.25;entryDx=0;entryDy=0;endArrow=none;endFill=0;curved=1;" parent="1" source="u5r3oi_NGVK20QQiaL4--125" target="u5r3oi_NGVK20QQiaL4--1" edge="1">
          <mxGeometry relative="1" as="geometry" />
        </mxCell>
        <mxCell id="u5r3oi_NGVK20QQiaL4--125" value="years of experience" style="ellipse;whiteSpace=wrap;html=1;" parent="1" vertex="1">
          <mxGeometry x="30" y="100" width="90" height="40" as="geometry" />
        </mxCell>
        <mxCell id="oU6C1A127O43UlzTdJz8-2" style="edgeStyle=orthogonalEdgeStyle;rounded=0;orthogonalLoop=1;jettySize=auto;html=1;exitX=1;exitY=0.5;exitDx=0;exitDy=0;entryX=0;entryY=0;entryDx=0;entryDy=0;curved=1;endArrow=none;endFill=0;" parent="1" source="u5r3oi_NGVK20QQiaL4--128" target="u5r3oi_NGVK20QQiaL4--130" edge="1">
          <mxGeometry relative="1" as="geometry" />
        </mxCell>
        <mxCell id="u5r3oi_NGVK20QQiaL4--128" value="rating" style="ellipse;whiteSpace=wrap;html=1;" parent="1" vertex="1">
          <mxGeometry x="300" y="10" width="90" height="40" as="geometry" />
        </mxCell>
        <mxCell id="u5r3oi_NGVK20QQiaL4--131" style="edgeStyle=orthogonalEdgeStyle;rounded=0;orthogonalLoop=1;jettySize=auto;html=1;entryX=0;entryY=0;entryDx=0;entryDy=0;endArrow=none;endFill=0;" parent="1" source="u5r3oi_NGVK20QQiaL4--130" target="u5r3oi_NGVK20QQiaL4--13" edge="1">
          <mxGeometry relative="1" as="geometry" />
        </mxCell>
        <mxCell id="u5r3oi_NGVK20QQiaL4--132" style="edgeStyle=orthogonalEdgeStyle;rounded=0;orthogonalLoop=1;jettySize=auto;html=1;entryX=1;entryY=0;entryDx=0;entryDy=0;endArrow=none;endFill=0;" parent="1" source="u5r3oi_NGVK20QQiaL4--130" target="u5r3oi_NGVK20QQiaL4--1" edge="1">
          <mxGeometry relative="1" as="geometry" />
        </mxCell>
        <mxCell id="u5r3oi_NGVK20QQiaL4--130" value="Rate" style="rhombus;whiteSpace=wrap;html=1;fillColor=#fff2cc;strokeColor=#d6b656;" parent="1" vertex="1">
          <mxGeometry x="385" y="20" width="80" height="80" as="geometry" />
        </mxCell>
        <mxCell id="u5r3oi_NGVK20QQiaL4--134" value="stay-time" style="ellipse;whiteSpace=wrap;html=1;" parent="1" vertex="1">
          <mxGeometry x="570" y="680" width="90" height="40" as="geometry" />
        </mxCell>
        <mxCell id="u5r3oi_NGVK20QQiaL4--138" value="patient-contact" style="ellipse;whiteSpace=wrap;html=1;" parent="1" vertex="1">
          <mxGeometry x="720" y="240" width="90" height="40" as="geometry" />
        </mxCell>
        <mxCell id="oU6C1A127O43UlzTdJz8-4" style="edgeStyle=orthogonalEdgeStyle;rounded=0;orthogonalLoop=1;jettySize=auto;html=1;curved=1;endArrow=none;endFill=0;" parent="1" source="oU6C1A127O43UlzTdJz8-3" target="u5r3oi_NGVK20QQiaL4--27" edge="1">
          <mxGeometry relative="1" as="geometry" />
        </mxCell>
        <mxCell id="oU6C1A127O43UlzTdJz8-3" value="appointment_id" style="ellipse;whiteSpace=wrap;html=1;" parent="1" vertex="1">
          <mxGeometry x="590" y="440" width="90" height="40" as="geometry" />
        </mxCell>
        <mxCell id="5ir33pK8YzCBuGAASgYP-10" style="edgeStyle=orthogonalEdgeStyle;rounded=0;orthogonalLoop=1;jettySize=auto;html=1;exitX=0.5;exitY=1;exitDx=0;exitDy=0;entryX=0.5;entryY=0;entryDx=0;entryDy=0;" parent="1" source="5ir33pK8YzCBuGAASgYP-1" target="5ir33pK8YzCBuGAASgYP-9" edge="1">
          <mxGeometry relative="1" as="geometry" />
        </mxCell>
        <mxCell id="5ir33pK8YzCBuGAASgYP-1" value="System Admin" style="rounded=0;whiteSpace=wrap;html=1;fillColor=#dae8fc;strokeColor=#6c8ebf;" parent="1" vertex="1">
          <mxGeometry x="660" y="540" width="120" height="60" as="geometry" />
        </mxCell>
        <mxCell id="5ir33pK8YzCBuGAASgYP-11" style="edgeStyle=orthogonalEdgeStyle;rounded=0;orthogonalLoop=1;jettySize=auto;html=1;exitX=0.5;exitY=1;exitDx=0;exitDy=0;entryX=0.5;entryY=1;entryDx=0;entryDy=0;" parent="1" source="5ir33pK8YzCBuGAASgYP-9" target="u5r3oi_NGVK20QQiaL4--60" edge="1">
          <mxGeometry relative="1" as="geometry">
            <Array as="points">
              <mxPoint x="720" y="850" />
              <mxPoint x="500" y="850" />
            </Array>
          </mxGeometry>
        </mxCell>
        <mxCell id="5ir33pK8YzCBuGAASgYP-9" value="Assigns" style="rhombus;whiteSpace=wrap;html=1;fillColor=#fff2cc;strokeColor=#d6b656;" parent="1" vertex="1">
          <mxGeometry x="680" y="630" width="80" height="80" as="geometry" />
        </mxCell>
        <mxCell id="5ir33pK8YzCBuGAASgYP-19" style="edgeStyle=orthogonalEdgeStyle;rounded=0;orthogonalLoop=1;jettySize=auto;html=1;exitX=1;exitY=0;exitDx=0;exitDy=0;entryX=0;entryY=0.25;entryDx=0;entryDy=0;" parent="1" source="5ir33pK8YzCBuGAASgYP-13" target="u5r3oi_NGVK20QQiaL4--13" edge="1">
          <mxGeometry relative="1" as="geometry">
            <Array as="points">
              <mxPoint x="580" y="490" />
              <mxPoint x="580" y="145" />
            </Array>
          </mxGeometry>
        </mxCell>
        <mxCell id="5ir33pK8YzCBuGAASgYP-20" style="edgeStyle=orthogonalEdgeStyle;rounded=0;orthogonalLoop=1;jettySize=auto;html=1;exitX=0;exitY=0;exitDx=0;exitDy=0;entryX=0.5;entryY=1;entryDx=0;entryDy=0;" parent="1" source="5ir33pK8YzCBuGAASgYP-13" target="u5r3oi_NGVK20QQiaL4--99" edge="1">
          <mxGeometry relative="1" as="geometry" />
        </mxCell>
        <mxCell id="5ir33pK8YzCBuGAASgYP-13" value="Adds to System" style="rhombus;whiteSpace=wrap;html=1;fillColor=#fff2cc;strokeColor=#d6b656;" parent="1" vertex="1">
          <mxGeometry x="490" y="430" width="80" height="80" as="geometry" />
        </mxCell>
        <mxCell id="5ir33pK8YzCBuGAASgYP-15" value="" style="endArrow=none;html=1;rounded=0;entryX=0;entryY=0;entryDx=0;entryDy=0;exitX=1;exitY=0.5;exitDx=0;exitDy=0;" parent="1" source="5ir33pK8YzCBuGAASgYP-13" target="5ir33pK8YzCBuGAASgYP-1" edge="1">
          <mxGeometry width="50" height="50" relative="1" as="geometry">
            <mxPoint x="610" y="555" as="sourcePoint" />
            <mxPoint x="660" y="505" as="targetPoint" />
          </mxGeometry>
        </mxCell>
        <mxCell id="5ir33pK8YzCBuGAASgYP-21" value="" style="endArrow=none;html=1;rounded=0;exitX=0;exitY=0.25;exitDx=0;exitDy=0;entryX=0;entryY=0.5;entryDx=0;entryDy=0;" parent="1" source="u5r3oi_NGVK20QQiaL4--107" target="5ir33pK8YzCBuGAASgYP-1" edge="1">
          <mxGeometry width="50" height="50" relative="1" as="geometry">
            <mxPoint x="300" y="480" as="sourcePoint" />
            <mxPoint x="350" y="430" as="targetPoint" />
            <Array as="points">
              <mxPoint x="320" y="450" />
              <mxPoint x="320" y="500" />
              <mxPoint x="320" y="580" />
              <mxPoint x="520" y="580" />
              <mxPoint x="600" y="580" />
              <mxPoint x="640" y="580" />
            </Array>
          </mxGeometry>
        </mxCell>
        <mxCell id="5IzPzwv9jZt_YoJpFygQ-2" style="edgeStyle=orthogonalEdgeStyle;rounded=0;orthogonalLoop=1;jettySize=auto;html=1;entryX=0.25;entryY=1;entryDx=0;entryDy=0;endArrow=none;endFill=0;curved=1;" edge="1" parent="1" source="5IzPzwv9jZt_YoJpFygQ-1" target="u5r3oi_NGVK20QQiaL4--60">
          <mxGeometry relative="1" as="geometry" />
        </mxCell>
        <mxCell id="5IzPzwv9jZt_YoJpFygQ-1" value="nurse_id" style="ellipse;whiteSpace=wrap;html=1;" vertex="1" parent="1">
          <mxGeometry x="400" y="800" width="90" height="40" as="geometry" />
        </mxCell>
      </root>
    </mxGraphModel>
  </diagram>
</mxfile>
